<svg xmlns="http://www.w3.org/2000/svg" width="17" height="17" viewBox="0 0 17 17">
  <g id="Group_46880" data-name="Group 46880" transform="translate(-185 -269)">
    <circle id="Ellipse_4839" data-name="Ellipse 4839" cx="8.5" cy="8.5" r="8.5" transform="translate(185 269)" fill="#fbb43a"/>
    <path id="Path_71057" data-name="Path 71057" d="M-.99-23.056V-30H-2.21v6.944Zm.274,2.18a.776.776,0,0,0-.072-.332.957.957,0,0,0-.192-.274.892.892,0,0,0-.278-.189.833.833,0,0,0-.336-.069.809.809,0,0,0-.332.069.9.9,0,0,0-.274.189.9.9,0,0,0-.189.274.809.809,0,0,0-.069.332.858.858,0,0,0,.069.339.881.881,0,0,0,.189.281.9.9,0,0,0,.274.189A.809.809,0,0,0-1.593-20a.833.833,0,0,0,.336-.069.892.892,0,0,0,.278-.189.93.93,0,0,0,.192-.281A.823.823,0,0,0-.716-20.876Z" transform="translate(195.087 302.499)" fill="#fff"/>
  </g>
</svg>
