<svg width="28" height="28" viewBox="0 0 28 28" fill="none" xmlns="http://www.w3.org/2000/svg">
<rect width="28" height="28" rx="14" fill="#E54629"/>
<path d="M8.39411 20.4717C8.2846 20.4717 8.19153 20.435 8.11492 20.3617C8.03831 20.2884 8 20.1976 8 20.0893C8 19.981 8.0371 19.8888 8.11129 19.8126C8.18548 19.7364 8.27742 19.6983 8.3871 19.6983H8.78919V13.0054C8.78919 11.6779 9.2175 10.5227 10.0741 9.53979C10.9309 8.55692 12.0137 7.98001 13.3226 7.80905V6.67673C13.3226 6.4887 13.3882 6.32894 13.5195 6.19746C13.6508 6.06582 13.8102 6 13.9978 6C14.1854 6 14.3456 6.06582 14.4783 6.19746C14.611 6.32894 14.6774 6.4887 14.6774 6.67673V7.80905C15.9863 7.98001 17.0691 8.55692 17.9259 9.53979C18.7825 10.5227 19.2108 11.6779 19.2108 13.0054V19.6983H19.6129C19.7226 19.6983 19.8145 19.7349 19.8887 19.8082C19.9629 19.8814 20 19.9722 20 20.0806C20 20.1889 19.963 20.2811 19.889 20.3574C19.8148 20.4336 19.7229 20.4717 19.6134 20.4717H8.39411ZM13.9915 23C13.6125 23 13.2909 22.866 13.0267 22.5981C12.7623 22.3301 12.6302 22.008 12.6302 21.6318H15.3698C15.3698 22.0161 15.2348 22.3402 14.9648 22.6041C14.695 22.868 14.3706 23 13.9915 23Z" fill="white"/>
</svg>
